<svg width="23" height="22" viewBox="0 0 23 22" fill="none" xmlns="http://www.w3.org/2000/svg">
<path d="M20.2913 3.50813C19.7805 2.99713 19.1741 2.59177 18.5066 2.31521C17.8392 2.03865 17.1238 1.8963 16.4013 1.8963C15.6788 1.8963 14.9634 2.03865 14.2959 2.31521C13.6285 2.59177 13.022 2.99713 12.5113 3.50813L11.4513 4.56813L10.3913 3.50813C9.3596 2.47643 7.96032 1.89684 6.50129 1.89684C5.04226 1.89684 3.64298 2.47643 2.61129 3.50813C1.5796 4.53982 1 5.93909 1 7.39813C1 8.85716 1.5796 10.2564 2.61129 11.2881L3.67129 12.3481L11.4513 20.1281L19.2313 12.3481L20.2913 11.2881C20.8023 10.7774 21.2076 10.1709 21.4842 9.50348C21.7608 8.83602 21.9031 8.12061 21.9031 7.39813C21.9031 6.67564 21.7608 5.96023 21.4842 5.29277C21.2076 4.62531 20.8023 4.01888 20.2913 3.50813Z" stroke="#1F2937" stroke-width="2" stroke-linecap="round" stroke-linejoin="round"/>
</svg>
